<svg xmlns="http://www.w3.org/2000/svg"  viewBox="0 0 50 50" width="50px" height="50px"><path d="M 17.365234 4.7011719 C 16.263359 4.6999219 15.084844 4.8022656 13.839844 5.0097656 C 7.1498437 6.1297656 3 11.1 3 18 C 3 30.07 13.579844 37.800156 20.589844 42.910156 C 22.069844 43.990156 23.339375 44.919531 24.359375 45.769531 C 24.549375 45.919531 24.77 46 25 46 C 25.23 46 25.450625 45.919531 25.640625 45.769531 C 26.660625 44.919531 27.930156 43.990156 29.410156 42.910156 C 36.420156 37.800156 47 30.07 47 18 C 47 14.55 45.959844 11.579844 44.089844 9.3398438 C 42.219844 7.0898438 39.500156 5.5697656 36.160156 5.0097656 C 32.290156 4.3697656 27.589531 4.9196875 25.019531 7.4296875 C 23.294531 5.6371875 20.670859 4.7049219 17.365234 4.7011719 z M 17.429688 6.6992188 C 19.489687 6.6992188 21.560312 7.0996094 23.070312 8.3496094 C 23.283245 8.5073369 25.483999 10.19445 26.492188 10.791016 C 31.239347 14.181397 42.841463 22.459749 44.146484 23.390625 C 42.532498 28.545293 38.790226 32.736676 34.847656 36.144531 L 5.4941406 14.367188 C 6.6281071 10.408265 9.6898587 7.7313832 14.160156 6.9902344 C 15.190156 6.8202344 16.309688 6.6992187 17.429688 6.6992188 z M 33.398438 6.7695312 C 34.234844 6.7828125 35.062344 6.8602344 35.839844 6.9902344 C 41.569844 7.9402344 45 12.06 45 18 C 45 18.768625 44.941509 19.519678 44.847656 20.259766 L 26.689453 8.5996094 C 28.294453 7.2571094 30.889219 6.7296875 33.398438 6.7695312 z M 5.1484375 15.949219 L 32.185547 38.326172 C 30.810316 39.398061 29.458867 40.394303 28.230469 41.289062 C 27.020469 42.179063 25.93 42.970937 25 43.710938 C 24.07 42.970937 22.979531 42.179062 21.769531 41.289062 C 15.089531 36.419063 5 29.06 5 18 C 5 17.288659 5.0519981 16.60604 5.1484375 15.949219 z"/></svg>